<svg xmlns="http://www.w3.org/2000/svg" width="14" height="13" viewBox="0 0 14 13"><g><g><path fill="#8c8c8c" d="M13.424 8.966a.553.553 0 0 1 .553.55.552.552 0 0 1-.551.552h-1.77a1.604 1.604 0 0 1-1.281 2.567 1.604 1.604 0 0 1-1.282-2.567H6.576a1.604 1.604 0 0 1-1.281 2.567 1.604 1.604 0 0 1-1.282-2.567h-.981a.55.55 0 0 1-.551-.598.546.546 0 0 1 .106-.28l1.168-1.908-.907-4.396-.37-1.753H.513a.552.552 0 0 1 0-1.103h2.414c.259 0 .487.184.54.438l.085.396 9.875.033a.546.546 0 0 1 .532.64l-1.075 6.016A.543.543 0 0 1 12.35 8l-7.762.014-.468.952zM4.83 6.928l7.067-.012.881-4.934-8.997-.03zm.815 4.453a.494.494 0 1 0-.699-.699.494.494 0 0 0 .699.699zm5.08 0a.494.494 0 1 0-.7-.699.494.494 0 0 0 .7.699z"/></g></g></svg>