<svg xmlns="http://www.w3.org/2000/svg" width="33" height="33" viewBox="0 0 33 33"><g><g><g><path d="M12.28 4.56h-2.14v1.07h2.14z"/></g><g><path d="M12.28 6.7h-2.14v1.07h2.14z"/></g><g><path d="M12.28 8.84h-2.14v1.07h2.14z"/></g><g><path d="M19.77 5.1H18.7a1.07 1.07 0 0 1-1.07 1.07v1.07a2.142 2.142 0 0 0 2.14-2.14z"/></g><g><path d="M22.44 7.77V6.7a1.07 1.07 0 0 1-1.07-1.07H20.3a2.142 2.142 0 0 0 2.14 2.14z"/></g><g><path d="M32.502 30.237l.191 1.053-4.45.809a11.234 11.234 0 0 1-3.026.135l-9.299-.846a1.653 1.653 0 0 1-1.396-2.23h-7.06a.531.531 0 0 1-.533-.534h-.002v-5.097L4.18 22.74H.51v-1.07h3.744c.05 0 .099.008.147.021l3.638 1.04 3.672-.46a.034.034 0 0 0 .028-.034.034.034 0 0 0-.032-.031h-2.64a.535.535 0 0 1 0-1.07h4.545a.268.268 0 0 0 0-.535H9.067a.535.535 0 1 1 0-1.07h5.615a.268.268 0 0 0 0-.534H9.067a.535.535 0 1 1 0-1.07h4.01a.267.267 0 1 0 0-.535H7.463a.535.535 0 0 1-.378-.913l1.918-1.917a.221.221 0 0 0-.157-.378c-.42 0-.825.15-1.144.423l-3.1 2.657a.535.535 0 0 1-.347.128H.51v-1.07h3.546l2.871-2.46V11.51a.535.535 0 0 1 .535-.535h.535V3.489a3.209 3.209 0 1 1 6.418 0v2.32c.25-.12.524-.181.802-.181h.055a1.669 1.669 0 0 1 2.361-2.343 2.14 2.14 0 0 1 4.259 0 1.67 1.67 0 0 1 2.361 2.343h.055a1.872 1.872 0 1 1 0 3.743h-.802v1.605h.535a.535.535 0 0 1 .535.535v12.101c.062.047.12.098.175.153l2.185 2.185h5.661v1.07h-5.882a.534.534 0 0 1-.378-.157l-2.342-2.342a.6.6 0 0 0-1.024.424v.092c0 .13.043.256.12.36l1.225 1.632c.168.225.259.498.26.779v.013a1.34 1.34 0 0 1-1.337 1.338h-7.172a.583.583 0 0 0-.052 1.164l9.299.845c.913.083 1.834.042 2.737-.122zM13.972 10.35c.401.4.945.626 1.512.627h1.07a.535.535 0 0 0 .535-.535 2.142 2.142 0 0 0-2.14-2.14h-1.07a.536.536 0 0 0-.534.536c0 .567.226 1.11.627 1.512zm1.245-3.652a.803.803 0 0 0-.756.535h.488a3.214 3.214 0 0 1 3.007 2.088 3.202 3.202 0 0 1 4.48-.198v-.285a.535.535 0 0 1 .535-.535h1.337a.802.802 0 0 0 0-1.604h-1.337a.535.535 0 0 1-.378-.913l.802-.803a.6.6 0 0 0-.848-.848l-.802.803a.535.535 0 0 1-.913-.379v-1.07a1.07 1.07 0 0 0-2.14 0v1.07a.535.535 0 0 1-.912.379l-.802-.803a.6.6 0 0 0-.848.848l.802.803a.535.535 0 0 1-.378.913zm7.152 4.279a2.14 2.14 0 0 0-4.143 0zm-13.302 0h4.028a3.196 3.196 0 0 1-.82-2.14 1.608 1.608 0 0 1 1.07-1.512V3.49a2.14 2.14 0 0 0-4.278 0zm1.07 5.348h1.069v-4.279h-1.07zm-1.07-3.189v-1.09h-1.07v1.2c.275-.086.56-.13.848-.13.074 0 .149.007.222.02zm-.314 3.189h.314v-.314zm1.383 9.94l1.07 1.069v-3.92l-1.07.135zm-2.073-2.457a.544.544 0 0 1-.066.004v3.522l1.07-1.07v-2.582zm2.387 4.282l-.849-.848-.848.848zm1.825 0H23.24a.268.268 0 0 0 .267-.268v-.013a.232.232 0 0 0-.046-.138l-1.224-1.631a1.68 1.68 0 0 1-.334-1.002v-.092a1.671 1.671 0 0 1 1.604-1.667V12.045h-11.23v4.279h.802a1.338 1.338 0 0 1 1.31 1.604h.294a1.337 1.337 0 0 1 .236 2.653 1.336 1.336 0 0 1-1.306 1.625h-.802v.034a1.104 1.104 0 0 1-.535.944z"/></g></g></g></svg>