<svg xmlns="http://www.w3.org/2000/svg" width="12" height="14" viewBox="0 0 12 14"><g><g><path fill="#fff" d="M11.88 13.09a.124.124 0 0 1-.035.09.126.126 0 0 1-.09.038h-.938a.124.124 0 0 1-.124-.122A4.658 4.658 0 0 0 9.32 9.903 4.657 4.657 0 0 0 6.005 8.53c-1.253 0-2.43.488-3.316 1.373a4.658 4.658 0 0 0-1.371 3.193.125.125 0 0 1-.125.122H.255a.125.125 0 0 1-.125-.129 5.869 5.869 0 0 1 1.72-4.025 5.818 5.818 0 0 1 1.868-1.259l.018-.008a3.874 3.874 0 1 1 4.538-.002c.006.004.012.005.019.008a5.869 5.869 0 0 1 1.867 1.26 5.843 5.843 0 0 1 1.72 4.026zM7.905 6.554a2.67 2.67 0 0 0 .788-1.9 2.67 2.67 0 0 0-.788-1.9 2.67 2.67 0 0 0-1.9-.788 2.67 2.67 0 0 0-1.9.788 2.67 2.67 0 0 0-.787 1.9c0 .717.28 1.392.787 1.9a2.67 2.67 0 0 0 1.9.787 2.67 2.67 0 0 0 1.9-.787z"/></g></g></svg>