<svg xmlns="http://www.w3.org/2000/svg" width="14" height="14" viewBox="0 0 14 14"><g><g><path fill="#8c8c8c" d="M13.99 13.022a.144.144 0 0 1 0 .204l-.766.764a.145.145 0 0 1-.157.032.145.145 0 0 1-.047-.032L8.455 9.427a5.23 5.23 0 0 1-3.212 1.09 5.232 5.232 0 0 1-3.728-1.545A5.242 5.242 0 0 1-.03 5.243c0-1.41.548-2.733 1.545-3.728A5.242 5.242 0 0 1 5.243-.03c1.408 0 2.734.548 3.729 1.545a5.242 5.242 0 0 1 1.545 3.728 5.226 5.226 0 0 1-1.092 3.214zM9.18 5.243c0-1.05-.409-2.039-1.152-2.784a3.906 3.906 0 0 0-2.785-1.153c-1.05 0-2.039.41-2.784 1.153a3.913 3.913 0 0 0-1.153 2.784c0 1.052.41 2.04 1.153 2.785A3.916 3.916 0 0 0 5.243 9.18c1.052 0 2.04-.41 2.785-1.153A3.913 3.913 0 0 0 9.18 5.243z"/></g></g></svg>