<svg xmlns="http://www.w3.org/2000/svg" width="16" height="17" viewBox="0 0 16 17"><g><g><g/><g><path fill="#fff" d="M14.424 11.726a.553.553 0 0 1 .553.55.552.552 0 0 1-.551.552h-1.77a1.604 1.604 0 0 1-1.281 2.567 1.604 1.604 0 0 1-1.282-2.567H7.576a1.604 1.604 0 0 1-1.281 2.567 1.604 1.604 0 0 1-1.282-2.567h-.981a.55.55 0 0 1-.551-.598.546.546 0 0 1 .106-.28l1.168-1.908-.908-4.396-.368-1.753H1.512a.552.552 0 0 1 0-1.103h2.414c.259 0 .487.184.54.438l.085.396 9.875.033a.546.546 0 0 1 .532.64l-1.075 6.016a.543.543 0 0 1-.534.447l-7.762.014-.468.952zM5.83 9.688l7.067-.012.881-4.934-8.997-.03zm.815 4.453a.494.494 0 1 0-.699-.699.494.494 0 0 0 .699.699zm5.08 0a.494.494 0 1 0-.7-.699.494.494 0 0 0 .7.699z"/></g></g></g></svg>