<svg xmlns="http://www.w3.org/2000/svg" width="26" height="26" viewBox="0 0 26 26"><g><g><path d="M16.003 13l9.348-9.348c.257-.258.399-.601.399-.967s-.142-.71-.4-.967L24.532.9c-.257-.258-.6-.399-.967-.399-.366 0-.709.141-.966.4l-9.348 9.346L3.903.9C3.646.641 3.303.5 2.936.5c-.366 0-.71.141-.966.4l-.82.818a1.368 1.368 0 0 0 0 1.934l9.347 9.347-9.347 9.347a1.36 1.36 0 0 0-.399.967c0 .366.142.71.399.967l.82.82c.256.257.6.398.966.398s.71-.141.967-.399l9.347-9.347 9.347 9.347c.258.258.601.4.967.4s.71-.142.967-.4l.82-.819c.256-.257.398-.6.398-.967 0-.366-.142-.709-.399-.967z"/></g></g></svg>